<svg viewBox="0 0 227.29 99.39" xmlns="http://www.w3.org/2000/svg"><path d="m141.51 60.68.09 1.2c-4.45 4.17-21.94 21.24-25.06 23.8a114.06 114.06 0 0 1 -9.31 6.89 51.89 51.89 0 0 1 -7.7 4.36 14 14 0 0 1 -5.24 1.3 10.67 10.67 0 0 1 -8.51-3.87 14.85 14.85 0 0 1 -3.3-10 36.37 36.37 0 0 1 2.84-13.93 71.58 71.58 0 0 1 8.13-14.24q5.26-7.34 13.21-16.48 5.91-6.75 5.91-7.6a1.16 1.16 0 0 0 -.35-.84 1.1 1.1 0 0 0 -.77-.35q-1.35 0-8.23 5.9a244.12 244.12 0 0 0 -17.68 17.39q-10.8 11.46-23.31 27.28c-.47.56-2 2.48-4.47 5.73a68.17 68.17 0 0 1 -5.31 6.37 4.29 4.29 0 0 1 -2.67 1.47q-2 0-3.41-4a24.66 24.66 0 0 1 -1.44-8.47 12.15 12.15 0 0 1 1.79-5.91q1.8-3.17 7.81-11.35t10-13.82q3.93-5.62 8.64-13.64 3.27-5.52 4.83-8.87a13.75 13.75 0 0 0 1.58-5.84c0-1.45-.42-2.18-1.26-2.18q-2.67 0-10.06 7.14t-18.26 21.24q-10.83 14.07-22.65 32.55-3.87 6.33-5.48 8.51a4.52 4.52 0 0 1 -3.59 2.18c-1.64 0-3.18-1.74-4.6-5.24a23.77 23.77 0 0 1 -2.15-8.47 4.23 4.23 0 0 1 .85-2.32q9.27-12.37 15.25-21t10.62-16.44a108.78 108.78 0 0 0 6.75-12.8 22.1 22.1 0 0 0 2.11-7.91c0-2-.91-3-2.74-3q-2.25 0-7.67 2.88t-13.7 7.86q-8.27 5-13.26 7.63t-7.42 2.63c-1.55 0-2.32-.86-2.32-2.6a51.85 51.85 0 0 1 1-6.82 33 33 0 0 1 2-7.49q1.49-2.82 7.56-7.46t6.74-4.6c.37 0 .56.17.56.5 0 .18-.19.46-.56.84a44 44 0 0 0 -4.3 3.8 6.44 6.44 0 0 0 -1.76 3.23 162 162 0 0 1 23.04-11.82q10.15-4 14.1-4 2 0 3.72 2.64a27.37 27.37 0 0 1 3 6.11 18.77 18.77 0 0 1 1.23 4.47 24.78 24.78 0 0 1 -1.83 8.47q-1.83 4.89-5 11.36t-7.73 16.17q3.65-4.71 7-8.72t6.57-7.8q3.23-3.81 6.66-7.7a92.54 92.54 0 0 1 10.21-10.06 90.56 90.56 0 0 1 10.65-7.87q4.97-3.07 6.72-3.07 2.42 0 4.42 2.71a9.82 9.82 0 0 1 1.94 5.81q0 2-2.68 7.8t-7.8 14.77q-5.13 9-13.57 23.2 8-8.51 16.66-17.51t12.87-13.15a87.19 87.19 0 0 1 7-6.33q3.87-2.94 7.77-6.36l6.15-5.38a28.89 28.89 0 0 1 4-3 6.43 6.43 0 0 1 3.24-1.06c1.21 0 2.75 1.41 4.6 4.22s2.82 4.6 2.82 5.4a6 6 0 0 1 -1.65 3.51q-1.66 2-6.86 7.6a168.44 168.44 0 0 0 -16.59 20.7 114.35 114.35 0 0 0 -10.69 19.07q-3.61 8.61-3.62 13.6a7 7 0 0 0 1.16 4.5 4.44 4.44 0 0 0 3.63 1.41 10.37 10.37 0 0 0 4.18-.84 30.16 30.16 0 0 0 4.29-2.39q2.36-1.55 4.46-3c2-1.17 3.83-2.29 5.73-3.63" fill="#231f20"/><g fill="#010101"><path d="m167.34 10.39a3.18 3.18 0 1 0 -3.18-3.18 3.18 3.18 0 0 0 3.18 3.18z"/><path d="m167.61 19.29 5.53-7.41a7.35 7.35 0 0 0 1.51-4.88 7 7 0 0 0 -14.09 0 7.53 7.53 0 0 0 1.51 4.89zm-.27-17.36a5.29 5.29 0 1 1 -5.29 5.29 5.29 5.29 0 0 1 5.29-5.29z"/><path d="m205.12 27.94a3.74 3.74 0 0 0 2.35 1.25l.62.07a5.45 5.45 0 0 1 4.53 3.82 5.33 5.33 0 0 1 -1.57 5.51l-6.11 5.41a3.5 3.5 0 0 0 -1.18 2.63v1.43a2.75 2.75 0 0 0 1.24 2.32 5.13 5.13 0 0 1 2.32 3.8l.14 1.43a2.38 2.38 0 0 0 2.36 2.14h3.57a5.3 5.3 0 0 0 4.86-3.18l.22-.49a5.11 5.11 0 0 1 4.53-3.08h.84.28l2-.2a68.35 68.35 0 0 0 -2.26-11.8l-1.19 1.6a1.07 1.07 0 0 1 -1.48.22 1.45 1.45 0 0 1 -.21-.22l-5.14-6.86a7.77 7.77 0 0 1 -.47-8.74 48 48 0 0 0 -7.07-5.73l-3.46 5.92a2.41 2.41 0 0 0 .28 2.75z"/><path d="m221.82 38.18 4.29-5.73a5.71 5.71 0 0 0 1.17-3.78 5.46 5.46 0 0 0 -10.92 0 5.89 5.89 0 0 0 1.18 3.8zm-.21-13.81a4.46 4.46 0 1 1 -4.46 4.45 4.46 4.46 0 0 1 4.46-4.45z"/><path d="m224.31 53h-.4-.84a3 3 0 0 0 -2.65 1.82l-.22.49a7.4 7.4 0 0 1 -6.79 4.44h-3.57a4.48 4.48 0 0 1 -4.46-4l-.14-1.43a3 3 0 0 0 -1.37-2.23 4.85 4.85 0 0 1 -2.22-4.1v-1.36a5.64 5.64 0 0 1 1.9-4.22l6.11-5.4a3.21 3.21 0 0 0 .94-3.32 3.33 3.33 0 0 0 -2.77-2.33l-.62-.08a5.79 5.79 0 0 1 -3.67-2 4.53 4.53 0 0 1 -.53-5.22l3.51-6a53.44 53.44 0 0 0 -5.84-3.1 45.82 45.82 0 0 0 -18.59-4.29c-.57 0-1.19 0-1.84 0l4.68 6.76a7.37 7.37 0 0 1 -.22 8.74l-1.5 1.95a5.78 5.78 0 0 1 -5.29 2.2l-1.7-.22a3.85 3.85 0 0 0 -3.82 1.87 5.78 5.78 0 0 1 -5.74 2.82l-3.93-.5a4.08 4.08 0 0 0 -3.91 1.77 3.35 3.35 0 0 0 0 3.68l2.6 4.11a3 3 0 0 0 3.89 1l2.68-1.43a8.7 8.7 0 0 1 6.43-.37 9.14 9.14 0 0 1 18.15 1.17 9.41 9.41 0 0 1 -1.93 6.28l-1.65 2.21 1 1.33a6.26 6.26 0 0 0 .45.57l3.25 3.83a4 4 0 0 1 -.46 5.6l-.15.12-4.93 3.79a5.56 5.56 0 0 0 -1.95 2.81l-1.64 5.33a5.53 5.53 0 0 1 -1.06 2l-1.6 1.92a7.09 7.09 0 0 0 -1.59 3.79 4.84 4.84 0 0 1 -2.94 4 3.57 3.57 0 0 1 -4.68-1.91 3.31 3.31 0 0 1 -.23-.8l-1.51-9a4.59 4.59 0 0 0 -.95-2.09l-5.51-7.24a8.47 8.47 0 0 1 -1.47-3l-1.82-6.57a4.6 4.6 0 0 0 -3.21-3.2l-.39-.11a7.38 7.38 0 0 1 -3.12-1.75l-3.42-3.13a10.07 10.07 0 0 1 -1.79-2.27 5.25 5.25 0 0 0 -5.48-2.52l-4.95 1.61a44.26 44.26 0 1 0 87.54 9.23c0-.69 0-1.43-.07-2.21z"/><path d="m221.61 31.17a2.35 2.35 0 1 0 -2.35-2.35 2.35 2.35 0 0 0 2.35 2.35z"/><path d="m146.79 27.58a3.18 3.18 0 1 0 -3.17-3.18 3.18 3.18 0 0 0 3.17 3.18z"/><path d="m143.32 42.15a7.34 7.34 0 0 1 7.77 3.53 7.89 7.89 0 0 0 1.42 1.78l3.39 3.2a5.37 5.37 0 0 0 2.23 1.25l.4.1a6.72 6.72 0 0 1 4.68 4.67l1.79 6.57a6.49 6.49 0 0 0 1.11 2.25l5.52 7.24a6.73 6.73 0 0 1 1.29 3l1.51 9a1.47 1.47 0 0 0 1.71 1.26 1.59 1.59 0 0 0 .33-.09 2.74 2.74 0 0 0 1.66-2.24 9.18 9.18 0 0 1 2.07-4.92l1.6-1.93a3.53 3.53 0 0 0 .66-1.22l1.64-5.33a7.75 7.75 0 0 1 2.68-3.87l4.93-3.78a1.87 1.87 0 0 0 .34-2.62l-.05-.07-3.25-3.83c-.19-.22-.38-.45-.55-.69l-.58-.8-3.41 4.56a1.06 1.06 0 0 1 -1.69 0l-6.38-8.54a9.82 9.82 0 0 1 -1.93-5.25 6.63 6.63 0 0 0 -5.28 0l-2.67 1.43a5 5 0 0 1 -2.38.6 5.12 5.12 0 0 1 -4.3-2.35l-2.58-4.06a5.49 5.49 0 0 1 .09-6 6.19 6.19 0 0 1 5.91-2.71l3.94.5a3.69 3.69 0 0 0 3.64-1.79 5.94 5.94 0 0 1 5.9-2.9l1.71.22a3.66 3.66 0 0 0 3.35-1.4l1.5-2a5.28 5.28 0 0 0 .16-6.24l-5.39-7.68-1.82.21a10.07 10.07 0 0 1 -1.16 2l-6.38 8.54a1.06 1.06 0 0 1 -1.69 0l-4.7-6.28a58.29 58.29 0 0 0 -7.06 4.53 9.38 9.38 0 0 1 -.71 10.36l-6.38 8.54a1.06 1.06 0 0 1 -1.48.21 1 1 0 0 1 -.21-.21l-3.39-4.53a48.79 48.79 0 0 0 -3.4 9.07l3.77-1.22z"/><path d="m188.9 49.35a7.35 7.35 0 0 0 1.51-4.88 7 7 0 0 0 -14.09 0 7.57 7.57 0 0 0 1.52 4.89l5.53 7.39zm-11.09-4.67a5.29 5.29 0 1 1 5.29 5.32 5.28 5.28 0 0 1 -5.29-5.32z"/><circle cx="183.1" cy="44.68" r="3.18"/><path d="m147.06 36.47 5.54-7.41a7.3 7.3 0 0 0 1.5-4.87 7 7 0 0 0 -14.08 0 7.47 7.47 0 0 0 1.51 4.89zm-.27-17.36a5.29 5.29 0 1 1 -5.28 5.29 5.28 5.28 0 0 1 5.28-5.29z"/></g></svg>