<svg viewBox="0 0 144.97 106.23" xmlns="http://www.w3.org/2000/svg"><path d="m98.29 104.23a12.66 12.66 0 0 1 -10-4.57 16.83 16.83 0 0 1 -3.78-11.28 38.36 38.36 0 0 1 3-14.69 73.42 73.42 0 0 1 8.34-14.64c3.54-4.94 8-10.53 13.33-16.64.7-.79 1.31-1.5 1.85-2.13-.72.59-1.54 1.28-2.48 2.08-4.55 3.87-10.44 9.64-17.55 17.22s-14.94 16.71-23.21 27.15c-.47.58-2 2.49-4.44 5.71a66.53 66.53 0 0 1 -5.52 6.56 6 6 0 0 1 -4 2c-3.37 0-4.81-4-5.29-5.29a26.85 26.85 0 0 1 -1.56-9.15 14.16 14.16 0 0 1 2-6.9c1.25-2.19 3.84-6 7.94-11.55 3.95-5.39 7.29-10 9.92-13.78s5.46-8.23 8.56-13.51c2.17-3.64 3.79-6.57 4.81-8.7a12.06 12.06 0 0 0 1.38-4.93c-1 .47-3.34 1.92-7.93 6.35-4.83 4.67-10.9 11.73-18 21s-14.82 20.23-22.66 32.46c-2.62 4.28-4.45 7.11-5.57 8.62a6.39 6.39 0 0 1 -5.19 3c-3.8 0-5.8-4.88-6.46-6.48a25.41 25.41 0 0 1 -2.29-9.23 6.24 6.24 0 0 1 1.18-3.43l.06-.09c6.17-8.19 11.27-15.24 15.27-20.98s7.49-11.2 10.54-16.31a107.12 107.12 0 0 0 6.63-12.54 20.63 20.63 0 0 0 2-7.14c0-1-.14-1-.74-1s-2.24.26-6.73 2.65c-3.56 1.89-8.13 4.53-13.58 7.82s-10 5.91-13.35 7.68c-3.71 2-6.37 2.87-8.39 2.87-2.72-.02-4.38-1.78-4.38-4.62a45.71 45.71 0 0 1 1-7.15 34 34 0 0 1 2.2-8c1.19-2.21 3.8-4.86 8.17-8.17 6.63-5.05 7.14-5.05 7.93-5.05a2.45 2.45 0 0 1 2.56 2.55 2.55 2.55 0 0 1 -.12.74 139.25 139.25 0 0 1 13.8-6.51c7.08-2.86 11.93-4.23 14.84-4.23 2 0 3.82 1.19 5.39 3.53a30.34 30.34 0 0 1 3.23 6.56c1.18 3.35 1.34 4.47 1.34 5.13a27 27 0 0 1 -2 9.17c-1.24 3.3-2.93 7.18-5 11.53l-.39.79c.95-1.12 1.89-2.23 2.84-3.32q3.27-3.8 6.65-7.67a95.68 95.68 0 0 1 10.48-10.31 92.74 92.74 0 0 1 10.89-8c4.82-3.02 6.69-3.41 7.77-3.41 2.31 0 4.34 1.19 6 3.54a11.84 11.84 0 0 1 2.31 7c0 1.06-.3 3.11-2.86 8.64-1.8 3.88-4.45 8.9-7.88 14.92q-2.07 3.62-4.69 8.11l4.6-4.79c5.74-6 10.09-10.42 12.91-13.19a86.18 86.18 0 0 1 7.21-6.49c2.55-1.95 5.13-4.06 7.68-6.28l6.14-5.4a30.13 30.13 0 0 1 4.29-3.24 8.45 8.45 0 0 1 4.27-1.34c2 0 3.94 1.58 6.27 5.12 2.61 3.92 3.17 5.4 3.17 6.52a7.78 7.78 0 0 1 -2.1 4.77c-1.14 1.41-3.42 3.93-7 7.7a167.84 167.84 0 0 0 -16.39 20.46 112 112 0 0 0 -10.47 18.71c-2.3 5.47-3.47 9.79-3.47 12.83 0 2.07.44 2.91.71 3.23s.56.68 2.08.68a8.4 8.4 0 0 0 3.38-.68 26.66 26.66 0 0 0 4-2.23c1.57-1 3-2 4.45-2.94l.09-.06c1.91-1.13 3.82-2.37 5.67-3.67s3.35-2.38 4.4-3.15 1.9-1.36 2.46-1.72l3.08-2v9.36l-.63.6c-4.47 4.18-8.32 7.6-11.46 10.17a114.27 114.27 0 0 1 -9.48 7 54.52 54.52 0 0 1 -8 4.53 15.65 15.65 0 0 1 -6.03 1.52z" fill="#231f20" stroke="#fff" stroke-miterlimit="10" stroke-width="4"/></svg>