<svg viewBox="0 0 55.11 64.07" xmlns="http://www.w3.org/2000/svg"><path d="m53 12.61-12.1-4.7v45.2l14-36.11a2.54 2.54 0 0 0 .2-1.2 3.12 3.12 0 0 0 -2.1-3.19z"/><path d="m24.3 60.31 8.9 3.5a3.21 3.21 0 0 0 4.3-1.9l.7-1.8a4 4 0 0 1 -1.5.3h-12.4z"/><path d="m21.2.21a3.46 3.46 0 0 0 -4.4 2l-.6 1.5h13.9z"/><path d="m14.9 17.31h3.9v-5.1c-1.5.5-3 2.3-3.9 5.1z"/><path d="m13.7 24.31h5.1v-5.31h-4.4a21.91 21.91 0 0 0 -.7 5.31z"/><path d="m18.7 38.31v-5.2h-3.9c1 2.8 2.4 4.7 3.9 5.2z"/><path d="m14.3 31.41h4.4v-5.3h-5.1a28.32 28.32 0 0 0 .7 5.3z"/><path d="m24.9 19.11h-4.4v5.3h5.1a40.09 40.09 0 0 0 -.7-5.3z"/><path d="m20.5 12.21v5.1h3.9c-1-2.7-2.4-4.6-3.9-5.1z"/><path d="m26.7 31.41h4.7a15.47 15.47 0 0 0 1.5-5.3h-5.5c-.2 1.89-.4 3.6-.7 5.3z"/><path d="m12.6 19.11h-4.7a12 12 0 0 0 -1.5 5.3h5.5a28.32 28.32 0 0 1 .7-5.3z"/><path d="m11.9 26.11h-5.5a12 12 0 0 0 1.5 5.3h4.7a29.49 29.49 0 0 1 -.7-5.3z"/><path d="m8.9 33.11a13.12 13.12 0 0 0 6.4 4.7 15.84 15.84 0 0 1 -2.3-4.7z"/><path d="m23.9 37.81a13.12 13.12 0 0 0 6.4-4.7h-4.1a15.84 15.84 0 0 1 -2.3 4.7z"/><path d="m36.7 5.41h-34.2a2.48 2.48 0 0 0 -2.5 2.5v48.2a2.48 2.48 0 0 0 2.5 2.5h34.2a2.48 2.48 0 0 0 2.5-2.5v-48.2a2.48 2.48 0 0 0 -2.5-2.5zm-5.2 47.2h-23.8a.9.9 0 0 1 0-1.8h23.8a.9.9 0 1 1 0 1.8zm-24.7-5.5a.9.9 0 0 1 .9-.9h18.1a.9.9 0 0 1 0 1.8h-18.1a.9.9 0 0 1 -.9-.9zm12.8-6.9a15.06 15.06 0 0 1 -13.1-7.7 15.26 15.26 0 0 1 -1.9-7.3 15 15 0 0 1 15-14.9 15 15 0 1 1 0 29.9z"/><path d="m20.5 33.11v5.3c1.6-.5 3-2.5 3.9-5.3z"/><path d="m15.3 12.81a13.8 13.8 0 0 0 -6.3 4.6h4a14.1 14.1 0 0 1 2.3-4.6z"/><path d="m25.6 26.11h-5.1v5.3h4.4a28.32 28.32 0 0 0 .7-5.3z"/><path d="m23.9 12.81a15.2 15.2 0 0 1 2.3 4.6h4a12.52 12.52 0 0 0 -6.3-4.6z"/><path d="m27.3 24.31h5.5a13.53 13.53 0 0 0 -1.5-5.31h-4.7a30.74 30.74 0 0 1 .7 5.31z"/></svg>